<?xml version="1.0" encoding="utf-8"?>
<!-- Generator: Adobe Illustrator 24.0.3, SVG Export Plug-In . SVG Version: 6.00 Build 0)  -->
<svg version="1.1" id="Layer_1" xmlns="http://www.w3.org/2000/svg" xmlns:xlink="http://www.w3.org/1999/xlink" x="0px" y="0px"
	 viewBox="0 0 79 40" style="enable-background:new 0 0 79 40;" xml:space="preserve">
<style type="text/css">
	.st0{fill:#0048BB;}
</style>
<g>
	<polygon class="st0" points="0,0 7.6,10.8 33.3,10.8 11.7,16.6 13.5,19 37,10.4 	"/>
	<path d="M44.6,23.1h-5.8v16.6h5.8c2.7,0,4.5-0.8,5.4-2.4c0.5-0.8,0.8-1.7,1-2.7c0.2-1,0.3-2.2,0.3-3.6c0-2.8-0.5-4.8-1.4-6.1
		C48.9,23.8,47.2,23.1,44.6,23.1z M48.4,33.7c-0.1,0.7-0.3,1.3-0.5,1.9c-0.5,1.2-1.6,1.8-3.2,1.8h-3.1V25.5h3.1
		c1.6,0,2.6,0.4,3.1,1.3c0.5,0.9,0.8,2.3,0.8,4.3C48.5,32.1,48.5,33,48.4,33.7z M67.2,29.1c1.4-0.9,2.8-1.5,4.1-1.7V30
		c-1.4,0.3-2.6,0.6-3.6,1.1l-0.5,0.2v8.5h-2.6V27.6h2.6V29.1z M58,27.3c-1.5,0-3.1,0.2-4.9,0.6l0.1,1.9l0.8,0
		c1.6-0.1,2.8-0.2,3.9-0.2c0.5,0,1,0.1,1.2,0.4c0.3,0.3,0.4,0.7,0.4,1.4v0.9l-3.1,0.3c-1.4,0.1-2.4,0.4-3,1c-0.7,0.6-1,1.4-1,2.7
		c0,2.6,1.2,3.9,3.6,3.9c1.2,0,2.4-0.2,3.5-0.7v0.5h2.6v-8.4c0-1.4-0.3-2.4-1-3C60.6,27.6,59.5,27.3,58,27.3z M59.6,37.3l-0.4,0.1
		c-0.9,0.3-1.8,0.4-2.6,0.4c-1,0-1.5-0.6-1.5-1.7c0-1.1,0.6-1.7,1.7-1.8l2.8-0.3V37.3z M79,39.7c-1.1,0.2-1.9,0.3-2.5,0.3
		c-1.4,0-2.3-0.3-2.8-0.9c-0.5-0.6-0.8-1.8-0.8-3.6V24.1h2.6v3.5h3.3v2.3h-3.3v5.3c0,1,0.1,1.6,0.2,2c0.1,0.3,0.5,0.5,1.1,0.5l2-0.1
		L79,39.7z M34.2,23.1H37l-4.6,16.6h-4.3l-4.6-16.6h2.8l3.8,14.2h0.2L34.2,23.1z"/>
</g>
</svg>
